<svg id="Layer_1" data-name="Layer 1" xmlns="http://www.w3.org/2000/svg" xmlns:xlink="http://www.w3.org/1999/xlink" viewBox="0 0 72 72"><defs><style>.cls-1{fill:url(#linear-gradient);}</style><linearGradient id="linear-gradient" x1="5.34" y1="16.72" x2="60.26" y2="60.53" gradientUnits="userSpaceOnUse"><stop offset="0" stop-color="#ea1c4e"/><stop offset="0.42" stop-color="#2ac0e7"/><stop offset="0.7" stop-color="#7ac066"/><stop offset="0.95" stop-color="#ffcc03"/></linearGradient></defs><path class="cls-1" d="M32.43,38.13a1.82,1.82,0,0,0-.33,0c-.51.09-.78-.11-1-.62-.47-1.29-1-2.54-1.51-3.82a1.25,1.25,0,0,0-1.32-.88H13.89a1.23,1.23,0,0,0-1.3.89c-.41,1.08-.93,2.11-1.26,3.21s-.73,1.37-1.76,1.24c-.78-.09-1.2.37-1.21,1.15q0,2,0,4.05A1.06,1.06,0,0,0,9.53,44.5h1.09c.18,1.18.36,2.32.53,3.45q1.24,8.31,2.49,16.6c.14,1,.45,1.21,1.4,1.21H27.2c.92,0,1.24-.26,1.38-1.15q1.19-7.87,2.36-15.75c.22-1.44.43-2.88.66-4.36h.84c1.08,0,1.42-.34,1.42-1.43s0-2.35,0-3.52S33.52,38.13,32.43,38.13Zm-18.06-3c0-.1.29-.16.44-.16q6.3,0,12.61,0a.64.64,0,0,1,.49.28c.4.91.75,1.84,1.15,2.84H13.2C13.6,37.07,14,36.09,14.37,35.12Zm17.3,7.24H29.56c-.89,0-1.35.31-1.42,1s.3,1.06,1.25,1.29L27.18,59.36H21.24a1.09,1.09,0,1,0,0,2.16h5.6l-.29,2H15.68l-.31-2h1.39a1.08,1.08,0,1,0,0-2.16H15L12.8,44.52H24.13c.77,0,1.24-.42,1.25-1.07a1.08,1.08,0,0,0-1.23-1.09H10.56v-2H31.67ZM61,48.74c-1.23.08-2.47,0-3.75,0,0-1.43,0-2.77,0-4.12a2.16,2.16,0,0,0-2-2.23c-2.88-.06-5.76,0-8.64,0a1.06,1.06,0,0,0-1,1.15c0,.6.52,1,1.27,1H54.4l.65,0v19H40.3V44.52c.7,0,1.35,0,2,0a1.05,1.05,0,0,0,1.13-1,1.09,1.09,0,0,0-1.12-1.08c-.55,0-1.1,0-1.66,0a2.28,2.28,0,0,0-2.54,2.54V63.19a2.29,2.29,0,0,0,2.58,2.57H54.65a2.31,2.31,0,0,0,2.6-2.62V59.38h1.19a5,5,0,0,0,5.08-4.25c.19-1.22,0-2.48.12-3.71A2.32,2.32,0,0,0,61,48.74Zm-14.75,9.7-.88-1.15c-.36-.44-.6-.77-.88-1.14h0c-.07.43-.17.83-.31,1.37l-.32,1.38L42,59.27l1.33-4-2.64-3.09,1.82-.36L43.41,53c.29.38.52.7.76,1.06h0c.08-.48.16-.82.26-1.27l.34-1.4,1.81-.35-1.31,3.82,2.8,3.19ZM47.58,51a14.72,14.72,0,0,1,2.13-.57,3.41,3.41,0,0,1,2.26.15A2.09,2.09,0,0,1,53,52a2.25,2.25,0,0,1-.32,1.79A3.36,3.36,0,0,1,50.58,55a3.17,3.17,0,0,1-.55.07l.49,2.52L49,57.91Zm2.21,2.89a2.64,2.64,0,0,0,.54-.07c.84-.16,1.28-.69,1.14-1.4s-.65-1-1.45-.79a3,3,0,0,0-.64.18Zm11.5,1.35a2.64,2.64,0,0,1-2.52,2,12.72,12.72,0,0,1-1.52,0v-6c0-.08,0-.17,0-.28h4.29A32.31,32.31,0,0,1,61.29,55.21Zm-26-23.46a2.19,2.19,0,0,1-2.48-2.49c0-3.32,0-6.64,0-10a2.18,2.18,0,0,1,2.47-2.44H57a2.16,2.16,0,0,1,2.39,2.37,8.22,8.22,0,0,1,0,.86,1.1,1.1,0,0,1-1.11,1,1.07,1.07,0,0,1-1-1c0-.33,0-.66,0-1H35V29.61c4.1,0,8.16,0,12.21,0a2.16,2.16,0,0,1,1.55.58c1.5,1.31,3,2.6,4.53,3.9l.76.62c0-1.33,0-2.52,0-3.7s.35-1.38,1.4-1.39H57a.83.83,0,0,0,.2-.08V25.26c0-.34,0-.67,0-1a1.07,1.07,0,0,1,1-1,1,1,0,0,1,1.08,1c0,1.9.06,3.81,0,5.71a2,2,0,0,1-2,1.83c-.35,0-.7,0-1.12,0V36.1c0,.24,0,.49,0,.73a1.13,1.13,0,0,1-.65,1.2,1.11,1.11,0,0,1-1.27-.3l-3.63-3.11c-1-.84-1.93-1.69-2.94-2.49a1.8,1.8,0,0,0-1-.37C42.9,31.74,39.09,31.75,35.28,31.75ZM12.61,19q0-5.31,0-10.62a2.08,2.08,0,0,1,2.12-2.11q11.16,0,22.32,0a2.07,2.07,0,0,1,2.12,2.1c0,1.72,0,3.45,0,5.18a1.09,1.09,0,0,1-1.11,1.21c-.61,0-1-.48-1-1.23,0-1.48,0-3,0-4.45v-.7H14.78V19c.59,0,1.18,0,1.76,0,1,0,1.39.35,1.39,1.33,0,1.21,0,2.42,0,3.78a37.75,37.75,0,0,0,3.4-3A6.29,6.29,0,0,1,27.23,19a16.87,16.87,0,0,0,2.25,0A1.08,1.08,0,0,1,30.68,20a1.09,1.09,0,0,1-1.19,1.08c-1.41,0-2.83,0-4.25,0a1.55,1.55,0,0,0-.94.34C22.13,23.3,20,25.15,17.84,27c-.42.36-.84.66-1.43.39s-.62-.8-.62-1.35c0-1.62,0-3.23,0-4.92H14.71A2.12,2.12,0,0,1,12.61,19Zm21-6.35H18.16c-.84,0-1.3-.39-1.31-1.07s.46-1.08,1.29-1.08H33.59c.89,0,1.36.39,1.34,1.1S34.46,12.63,33.61,12.63ZM46,23.26H38.19a1,1,0,0,1-1.12-.83,1,1,0,0,1,.52-1.18,1.68,1.68,0,0,1,.7-.14h15.6c.78,0,1.24.4,1.24,1.06s-.45,1.09-1.28,1.09Zm-1.54,3.16c0-.68.47-1.06,1.31-1.06h8.09c.79,0,1.24.39,1.25,1.05s-.44,1.1-1.27,1.1H45.77C44.93,27.51,44.48,27.11,44.48,26.42Zm-15-11.68c.78,0,1.23.39,1.24,1s-.44,1.08-1.21,1.09H23.38c-.77,0-1.22-.42-1.21-1.09s.46-1,1.24-1h6ZM41.35,25.37a1,1,0,0,1,1,1.06,1,1,0,0,1-1,1.07c-.53,0-1.06,0-1.59,0s-1.1,0-1.65,0A1.06,1.06,0,0,1,37,26.4a1,1,0,0,1,1.06-1C39.18,25.35,40.27,25.34,41.35,25.37ZM18.43,16.88h0a4.82,4.82,0,0,1-.66,0,1,1,0,0,1-.91-1.1,1,1,0,0,1,.93-1,6.64,6.64,0,0,1,1.18,0,1,1,0,0,1,1.08,1.07A1,1,0,0,1,19,16.88Zm7,35.11a4.27,4.27,0,1,1-4.14-4.32A4.27,4.27,0,0,1,25.38,52Z"/></svg>