<svg id="Layer_1" data-name="Layer 1" xmlns="http://www.w3.org/2000/svg" xmlns:xlink="http://www.w3.org/1999/xlink" viewBox="0 0 72 72"><defs><style>.cls-1{fill:url(#linear-gradient);}</style><linearGradient id="linear-gradient" x1="13.98" y1="25.47" x2="64.08" y2="65.45" gradientUnits="userSpaceOnUse"><stop offset="0" stop-color="#ea1c4e"/><stop offset="0.42" stop-color="#2ac0e7"/><stop offset="0.7" stop-color="#7ac066"/><stop offset="0.95" stop-color="#ffcc03"/></linearGradient></defs><path class="cls-1" d="M65.71,55.38a8.63,8.63,0,0,0-2.55-6.2c-.84-.86-1.7-1.69-2.54-2.55-.44-.46-.85-1-1.28-1.45l-1.53,1.53c.16.17.3.33.45.47l3.36,3.37a5.91,5.91,0,0,1,1.94,3.89c.11,2.54.12,5.1,0,7.65a2.32,2.32,0,0,1-1.85,2.23,21.25,21.25,0,0,1-3.2.26V59.35h2v-2H56.45V39.1c0-1-.34-1.35-1.35-1.35a19.79,19.79,0,0,0-2.18,0,6.94,6.94,0,0,1-5.6-1.61,9.46,9.46,0,0,0-.91-.59,8.52,8.52,0,0,1-2.36-1.63,9.31,9.31,0,0,1-.8-2.74.62.62,0,0,1,.36-.86,4.7,4.7,0,0,0,2.5-3.61c.07-.42,0-.85.08-1.26,2.66-.35,3.94-1.47,4.09-3.46.19-2.74-.77-4.41-3.4-4.89a12.18,12.18,0,0,0,.29-1.69c0-1.11,0-2.23,0-3.35a7.48,7.48,0,0,0-7.31-7.26q-3,0-6,0a7.36,7.36,0,0,0-6.77,4.8c-.87,2.46-.61,5-.25,7.52-2.22.33-3.53,1.9-3.37,4.45a4.11,4.11,0,0,0,.84,2.5,3.79,3.79,0,0,0,3.23,1.33.85.85,0,0,1,.05.18,5,5,0,0,0,2.75,4.93.64.64,0,0,1,.17.57c-.18.86-.39,1.71-.64,2.55a1.24,1.24,0,0,1-.49.62c-1.69,1.1-3.38,2.18-5.09,3.24a1.67,1.67,0,0,1-.84.24c-1.65,0-3.3,0-4.95,0a1.05,1.05,0,0,0-1.19,1.19c0,1,0,1.93,0,2.89A1.33,1.33,0,0,1,16.87,43c-1.12,1.08-2.22,2.19-3.25,3.22l1.5,1.65,2.17-2.37V57.33h-4V59.4h2v5.12H13a2.8,2.8,0,0,1-2.89-2.88q0-3.16,0-6.31A6.39,6.39,0,0,1,12,50.74a7.64,7.64,0,0,1,.9-.71l-1.46-1.64A9,9,0,0,0,8.07,55.5c0,2,0,4,0,6a4.88,4.88,0,0,0,5,5q23.78,0,47.54,0a4.87,4.87,0,0,0,5-5C65.73,59.49,65.72,57.43,65.71,55.38Zm-30.49,1L33.9,54.7c-.53-.65-.89-1.15-1.3-1.7h0c-.1.65-.26,1.25-.46,2l-.48,2.07-2.71.53,2-5.9L27,47.15l2.72-.54L31,48.34c.43.58.77,1,1.13,1.59h0c.12-.71.23-1.22.38-1.88L33,46l2.71-.54-2,5.7L38,55.88Zm2-11.14a19.25,19.25,0,0,1,3.16-.84,5.06,5.06,0,0,1,3.37.21,3.06,3.06,0,0,1,1.6,2.2,3.32,3.32,0,0,1-.48,2.68,5,5,0,0,1-3.19,1.78,3.72,3.72,0,0,1-.82.09l.74,3.77-2.35.46Zm3.28,4.3a3.46,3.46,0,0,0,.81-.09c1.26-.25,1.91-1,1.7-2.1S42,46,40.83,46.22a4.47,4.47,0,0,0-.95.27Zm5.7-30.31c1.33-.15,2,.46,2,1.76,0,.25,0,.51,0,.77-.06,1.06-.83,1.63-2,1.48Zm-18.59,4c-1.28.16-2-.45-2-1.68V21c0-1.29.7-1.9,2-1.75ZM43.26,36l2.66,1.69H41.63Zm-4.49,1.49a2,2,0,0,1-.61.26h-.07a8.32,8.32,0,0,1-2.79-.1c-.77-.3-1.25-1.27-2-1.8a2.55,2.55,0,0,1-1-3.54,3.73,3.73,0,0,0,.19-.72l2.5,1.25a3.76,3.76,0,0,0,3.62,0l2.55-1.28c.22.86.44,1.66.61,2.47a.7.7,0,0,1-.17.55C40.72,35.57,39.75,36.54,38.77,37.49Zm1.16,2.35v1.85H33.84V39.84ZM31.45,7.58a6.15,6.15,0,0,1,2.44-.68c2-.09,4-.07,6,0a5.35,5.35,0,0,1,5.16,5.43c-2.57-1.5-5.1-3-8.18-3s-5.63,1.43-8.17,3A5,5,0,0,1,31.45,7.58Zm-2.78,7.25a.51.51,0,0,1,.23-.27,50.69,50.69,0,0,1,5.31-2.67,8.31,8.31,0,0,1,7,.6c1.18.62,2.34,1.27,3.48,1.94.26.15.41.47.62.71a2,2,0,0,1-.93,1.63,1.56,1.56,0,0,1-1.75-.14c-.76-.51-1.51-1-2.3-1.52a6,6,0,0,0-6.78,0c-.8.5-1.57,1-2.36,1.56a1.53,1.53,0,0,1-1.86,0A1.83,1.83,0,0,1,28.67,14.83Zm1,11.14V19a4.13,4.13,0,0,0,2.9-.83c.66-.47,1.34-.93,2-1.36a4,4,0,0,1,4.54,0c.71.44,1.39.93,2.08,1.39a4,4,0,0,0,2.82.84c0,.15,0,.31,0,.48v6.36a2.88,2.88,0,0,1-1.66,2.75L37.75,31A1.76,1.76,0,0,1,36,31c-1.54-.78-3.1-1.55-4.65-2.32A2.85,2.85,0,0,1,29.69,26Zm.84,10,1.62,1.7H27.88ZM17.38,64.47v-5a32.75,32.75,0,0,1,4.21,0,5.9,5.9,0,0,1,4.87,4.95Zm22.55,0H33.86V60.44h6.07Zm2.11,0V59.92c0-1.32-.26-1.58-1.57-1.58h-7.4c-1,0-1.32.35-1.32,1.31,0,1.59,0,3.18,0,4.81H28.63a8.49,8.49,0,0,0-9.19-7.18V39.85H31.75v2.63c0,1,.35,1.31,1.32,1.32h7.65c1,0,1.32-.36,1.32-1.32V39.86H54.35V57.28a8.49,8.49,0,0,0-9.19,7.2Zm14.38,0H47.34a5.9,5.9,0,0,1,4.77-4.94,38.27,38.27,0,0,1,4.31-.22Zm-4.75-7.8a1.82,1.82,0,0,0,1.77-1.73c0-.46,0-.92,0-1.38a.51.51,0,0,0-.55-.56c-.64,0-1.27,0-1.91,0a1.81,1.81,0,0,0-1.73,1.73c0,.46,0,.92,0,1.38a.5.5,0,0,0,.55.55h1C51.06,56.68,51.37,56.69,51.67,56.67ZM50.3,55.62c0-.28,0-.52,0-.76a.77.77,0,0,1,.8-.81h1.27a6.26,6.26,0,0,1,0,1,.71.71,0,0,1-.69.6C51.23,55.64,50.78,55.62,50.3,55.62ZM20.9,43.4h3.78a.6.6,0,0,1,.6.6h0a.6.6,0,0,1-.6.61H20.9a.61.61,0,0,1-.61-.61h0A.6.6,0,0,1,20.9,43.4Zm2.53-2.53h1.25a.61.61,0,0,1,.61.61h0a.61.61,0,0,1-.61.61H23.43a.62.62,0,0,1-.61-.61h0A.61.61,0,0,1,23.43,40.87ZM20.9,42.1h0a.61.61,0,0,1-.61-.61h0a.61.61,0,0,1,.61-.61h0a.61.61,0,0,1,.61.61h0A.61.61,0,0,1,20.9,42.1ZM33.83,25.92c.81.1,1.63-.25,2.43.33a1.29,1.29,0,0,0,1.19,0c.79-.59,1.64-.26,2.49-.4a2.77,2.77,0,0,1-3,2.6A2.84,2.84,0,0,1,33.83,25.92Zm-.06-4.69h-2v-2h2Zm8.24,0H40v-2h2Z"/></svg>