<svg id="Layer_1" data-name="Layer 1" xmlns="http://www.w3.org/2000/svg" xmlns:xlink="http://www.w3.org/1999/xlink" viewBox="0 0 72 72"><defs><style>.cls-1{fill:url(#linear-gradient);}</style><linearGradient id="linear-gradient" x1="9.71" y1="13.78" x2="62.24" y2="55.69" gradientUnits="userSpaceOnUse"><stop offset="0" stop-color="#ea1c4e"/><stop offset="0.42" stop-color="#2ac0e7"/><stop offset="0.7" stop-color="#7ac066"/><stop offset="0.95" stop-color="#ffcc03"/></linearGradient></defs><path class="cls-1" d="M65.61,48.63a7.23,7.23,0,0,1-7.41,7.52c-1.85,0-3.7,0-5.55,0a.94.94,0,0,0-1,.65c-1,2.25-2,4.48-3.07,6.72a2.55,2.55,0,0,1-.31.59,1,1,0,0,1-1.83-.93c.21-.58.49-1.13.75-1.69.91-2,1.85-3.95,2.73-5.93A2.33,2.33,0,0,1,52.26,54c1.92,0,3.84,0,5.75,0a5.14,5.14,0,0,0,5.49-5.5V34.12a3.26,3.26,0,0,0-5.28-2.64,5.25,5.25,0,0,0-.74.75c-1.6,1.81-3.22,3.62-4.8,5.45a4.13,4.13,0,0,1-3.37,1.52c-1.27,0-2.55,0-3.83,0-1.64,0-2.32.69-2.32,2.34v.8l.66,0c3.21,0,6.43,0,9.65,0a1,1,0,0,0,.93-.46c1.09-1.41,2.2-2.81,3.31-4.2.53-.67,1.1-.81,1.64-.39s.55,1,0,1.68c-1.14,1.46-2.31,2.9-3.42,4.37a1.81,1.81,0,0,0-.35,1c0,1.23,0,2.46,0,3.7,0,.91-.38,1.26-1.3,1.27h-3a3.81,3.81,0,0,0-4,2.86q-1.86,5.51-3.7,11c-.06.17-.1.34-.17.5a1.06,1.06,0,1,1-2-.66c.14-.47.3-.92.45-1.38,1.15-3.4,2.28-6.8,3.43-10.2a5.9,5.9,0,0,1,5.94-4.24c.7,0,1.39,0,2.12,0V44.52H18.58v2.72c.7,0,1.4,0,2.09,0a5.89,5.89,0,0,1,6,4.29q1.91,5.63,3.79,11.25a1.48,1.48,0,0,1,.11.95,1.42,1.42,0,0,1-.87.75c-.32,0-.73-.27-1-.52s-.2-.47-.29-.72q-1.84-5.51-3.7-11a3.82,3.82,0,0,0-4-2.88h-3c-.87,0-1.24-.38-1.24-1.25,0-1.26,0-2.51,0-3.77a1.74,1.74,0,0,0-.34-.95c-1.1-1.45-2.25-2.87-3.38-4.31-.56-.72-.58-1.31,0-1.74s1.12-.3,1.68.41c1.12,1.42,2.23,2.84,3.37,4.25a1,1,0,0,0,.63.35c3.43,0,6.87,0,10.31,0a.54.54,0,0,0,.16-.05,9.49,9.49,0,0,0,0-1.6,1.8,1.8,0,0,0-2-1.5q-2.09,0-4.17,0a4.06,4.06,0,0,1-3.3-1.51C17.66,35.75,16,33.8,14.23,31.9a3.2,3.2,0,0,0-5.32.62,3.6,3.6,0,0,0-.38,1.58q0,7.4,0,14.8A5,5,0,0,0,13.38,54c2.07.09,4.15.06,6.21,0a2.52,2.52,0,0,1,2.62,1.68c1,2.36,2.15,4.68,3.22,7a2.13,2.13,0,0,1,.23.88,1,1,0,0,1-.89.92,1,1,0,0,1-1.15-.69c-.77-1.65-1.53-3.31-2.3-5-.34-.74-.71-1.47-1-2.22a.75.75,0,0,0-.85-.53c-2.09,0-4.18.08-6.27,0a7.1,7.1,0,0,1-6.77-6.91c-.06-5.13,0-10.27,0-15.4a5.37,5.37,0,0,1,9.33-3.39q2.58,2.88,5.11,5.8a2.27,2.27,0,0,0,1.95.89c.72,0,1.45,0,2.25,0,0-.47,0-.88,0-1.29,0-2.14-.08-4.29.14-6.4a7.6,7.6,0,0,1,7.42-6.61c2.21,0,4.41,0,6.61,0A7.75,7.75,0,0,1,47,30.19c0,.75,0,1.5,0,2.25a1.06,1.06,0,0,1-1.05,1.19c-.66,0-1-.43-1.06-1.22a25.45,25.45,0,0,0-.11-2.77A5.53,5.53,0,0,0,39.3,24.9c-2.18,0-4.36,0-6.54,0a5.57,5.57,0,0,0-5.57,5.35c-.08,2.24,0,4.49,0,6.79,2.93.51,4,2.4,3.77,5.26H41c0-.35,0-.74,0-1.12a4,4,0,0,1,4.09-4.1c1.35,0,2.69,0,4,0a2.39,2.39,0,0,0,2-.91c1.59-1.85,3.22-3.67,4.84-5.51a5.38,5.38,0,0,1,9.58,3.62Q65.63,41.46,65.61,48.63ZM53,20.16a6.32,6.32,0,1,1,6.31,6.3A6.35,6.35,0,0,1,53,20.16Zm2.11,0a4.21,4.21,0,1,0,4.17-4.26A4.25,4.25,0,0,0,55.08,20.18ZM6.4,20.13a6.32,6.32,0,1,1,6.35,6.34A6.35,6.35,0,0,1,6.4,20.13Zm2.12,0a4.21,4.21,0,1,0,4.18-4.23A4.21,4.21,0,0,0,8.52,20.16ZM29.84,13.8a6.32,6.32,0,1,1,6.31,6.3A6.36,6.36,0,0,1,29.84,13.8Zm2.11,0a4.21,4.21,0,1,0,4.22-4.2A4.24,4.24,0,0,0,32,13.77ZM37.06,48c0-.77-.42-1.25-1.06-1.24s-1,.48-1,1.26V63.1a1.09,1.09,0,0,0,1,1.15,1.08,1.08,0,0,0,1.08-1.17c0-2.53,0-5.06,0-7.6S37.07,50.51,37.06,48Z"/></svg>