<svg id="Layer_1" data-name="Layer 1" xmlns="http://www.w3.org/2000/svg" xmlns:xlink="http://www.w3.org/1999/xlink" viewBox="0 0 72 72"><defs><style>.cls-1{fill:none;stroke-width:3px;stroke:url(#linear-gradient);}.cls-1,.cls-2,.cls-3{stroke-miterlimit:10;}.cls-2,.cls-3{fill:#fff;}.cls-2{stroke-width:2.59px;stroke:url(#linear-gradient-2);}.cls-3{stroke-width:2.4px;stroke:url(#linear-gradient-3);}.cls-4{fill:url(#linear-gradient-4);}</style><linearGradient id="linear-gradient" x1="13.7" y1="32.99" x2="43.27" y2="56.58" gradientUnits="userSpaceOnUse"><stop offset="0" stop-color="#ea1c4e"/><stop offset="0.42" stop-color="#2ac0e7"/><stop offset="0.7" stop-color="#7ac066"/><stop offset="0.95" stop-color="#ffcc03"/></linearGradient><linearGradient id="linear-gradient-2" x1="22.24" y1="21.47" x2="49.56" y2="43.26" xlink:href="#linear-gradient"/><linearGradient id="linear-gradient-3" x1="35.13" y1="14.3" x2="58.82" y2="33.2" xlink:href="#linear-gradient"/><linearGradient id="linear-gradient-4" x1="38.56" y1="18.42" x2="53.88" y2="30.64" xlink:href="#linear-gradient"/></defs><circle class="cls-1" cx="28.49" cy="44.79" r="17.41"/><circle class="cls-2" cx="35.9" cy="32.37" r="16.18"/><circle class="cls-3" cx="46.97" cy="23.75" r="13.95"/><path class="cls-4" d="M39,24.3V17.82h3.2a4.25,4.25,0,0,1,1.9.4,3,3,0,0,1,1.29,1.11,3.11,3.11,0,0,1,.46,1.72,3.18,3.18,0,0,1-.46,1.74,3.14,3.14,0,0,1-1.29,1.12,4.39,4.39,0,0,1-1.9.39Zm2.19-1.7h.91a1.73,1.73,0,0,0,.81-.18,1.29,1.29,0,0,0,.54-.52,1.7,1.7,0,0,0,.2-.85,1.67,1.67,0,0,0-.2-.83,1.29,1.29,0,0,0-.54-.52,1.73,1.73,0,0,0-.81-.17h-.91Zm9.27,0h3.23V24.3H48.34V17.82H53.6v1.65H50.49Zm-.15-2.42h2.88V21.8H50.34ZM39,31.4V24.92h1.8l2.59,4.23h-.94L45,24.92h1.8V31.4h-2l0-3.48h.31l-1.72,2.9h-1l-1.8-2.9H41V31.4Zm12.22.15a4.24,4.24,0,0,1-1.45-.25,3.33,3.33,0,0,1-1.16-.71,3.09,3.09,0,0,1-.77-1.08,3.51,3.51,0,0,1,0-2.7A3.3,3.3,0,0,1,49.8,25a4,4,0,0,1,1.45-.25,4.13,4.13,0,0,1,1.47.25,3.35,3.35,0,0,1,1.15.7,3.44,3.44,0,0,1,.77,1.08,3.51,3.51,0,0,1,0,2.7,3.23,3.23,0,0,1-.77,1.08,3.38,3.38,0,0,1-1.15.71A4.36,4.36,0,0,1,51.25,31.55Zm0-1.77a1.48,1.48,0,0,0,.57-.11,1.36,1.36,0,0,0,.47-.32,1.62,1.62,0,0,0,.31-.51,2,2,0,0,0,.11-.68,2.06,2.06,0,0,0-.11-.68,1.62,1.62,0,0,0-.31-.51,1.51,1.51,0,0,0-.47-.32,1.51,1.51,0,0,0-1.13,0,1.51,1.51,0,0,0-.47.32,1.62,1.62,0,0,0-.31.51,2.06,2.06,0,0,0-.11.68,2,2,0,0,0,.11.68,1.62,1.62,0,0,0,.31.51,1.36,1.36,0,0,0,.47.32A1.47,1.47,0,0,0,51.25,29.78Z"/></svg>